<svg xmlns="http://www.w3.org/2000/svg" xmlns:xlink="http://www.w3.org/1999/xlink" viewBox="0 0 290 290"><defs><style>.cls-1{fill:url(#linear-gradient);}.cls-2{fill:#fff;}</style><linearGradient id="linear-gradient" y1="145" x2="290" y2="145" gradientTransform="translate(145 -60.06) rotate(45)" gradientUnits="userSpaceOnUse"><stop offset="0" stop-color="#ff416c"/><stop offset="1" stop-color="#ff4b2b"/></linearGradient></defs><g id="Layer_2" data-name="Layer 2"><g id="Layer_1-2" data-name="Layer 1"><circle class="cls-1" cx="145" cy="145" r="145"/><path class="cls-2" d="M96,189.65c0,4.66,7,4.66,7,0S96,185,96,189.65Z"/><path class="cls-2" d="M96,224.64c0,4.66,7,4.66,7,0S96,220,96,224.64Z"/><path class="cls-2" d="M208,154.66c0-.1,0-.19,0-.28,0-8.7-6.72-16.47-17.76-22.12a43.65,43.65,0,0,0,5.07-20.08c0-16-7.59-31.79-20.24-42.39h0l-1.58-1.26a4,4,0,0,0-6,1.26c-.48,1.11-1,12.18-1,14.08V85a2.54,2.54,0,0,1-3,2.53,2.72,2.72,0,0,1-2.22-2.68c-.16-19-5.85-32.26-16.6-42.23-6.49-6-14.24-11.39-16.61-7.28-.63,1.11.32,3.48,1.42,6.49,2.21,6.8-4.58,17.71-14.23,28.63C106.25,80.71,95,93.36,95,112.18a43.7,43.7,0,0,0,5,20c-11.19,5.65-18,13.47-18,22.24v70.26c0,17.65,27.66,31.49,63,31.49s63-13.84,63-31.49V155h0c0-.1,0-.2,0-.3ZM130.45,116l11.39-13.6a4.51,4.51,0,0,1,6.8,0L160,116a20.75,20.75,0,1,1-35.59,14.55A20.3,20.3,0,0,1,130.45,116ZM103.64,138.1c9.27,13.14,24.92,22.32,41.52,22.32s32.15-9.12,41.43-22.2c9.15,4.57,14.39,10.46,14.39,16.16,0,11.82-22.5,24.49-56,24.49s-56-12.66-56-24.49C89,148.63,94.34,142.69,103.64,138.1Zm41.36,111c-33.48,0-56-12.66-56-24.49V204.29c10.38,10.09,31.3,16.85,56,16.85s45.6-6.76,56-16.85v20.35C201,236.46,178.48,249.13,145,249.13Zm0-35c-33.48,0-56-12.66-56-24.49V169.29c10.38,10.1,31.3,16.86,56,16.86s45.6-6.76,56-16.85v20.35C201,201.47,178.48,214.14,145,214.14Z"/></g></g></svg>