<?xml version="1.0" encoding="UTF-8" standalone="no"?>
<svg
   xmlns:dc="http://purl.org/dc/elements/1.1/"
   xmlns:cc="http://creativecommons.org/ns#"
   xmlns:rdf="http://www.w3.org/1999/02/22-rdf-syntax-ns#"
   xmlns:svg="http://www.w3.org/2000/svg"
   xmlns="http://www.w3.org/2000/svg"
   xmlns:sodipodi="http://sodipodi.sourceforge.net/DTD/sodipodi-0.dtd"
   xmlns:inkscape="http://www.inkscape.org/namespaces/inkscape"
   viewBox="0 0 49.98 51"
   x="0px"
   y="0px"
   version="1.1"
   id="svg28"
   sodipodi:docname="noun_disk_2559768.svg"
   width="49.98"
   height="51"
   inkscape:version="0.92.4 (5da689c313, 2019-01-14)">
  <metadata
     id="metadata34">
    <rdf:RDF>
      <cc:Work
         rdf:about="">
        <dc:format>image/svg+xml</dc:format>
        <dc:type
           rdf:resource="http://purl.org/dc/dcmitype/StillImage" />
        <dc:title></dc:title>
      </cc:Work>
    </rdf:RDF>
  </metadata>
  <defs
     id="defs32" />
  <sodipodi:namedview
     pagecolor="#ffffff"
     bordercolor="#666666"
     borderopacity="1"
     objecttolerance="10"
     gridtolerance="10"
     guidetolerance="10"
     inkscape:pageopacity="0"
     inkscape:pageshadow="2"
     inkscape:window-width="2560"
     inkscape:window-height="1382"
     id="namedview30"
     showgrid="false"
     fit-margin-top="0"
     fit-margin-left="0"
     fit-margin-right="0"
     fit-margin-bottom="0"
     inkscape:zoom="2.95"
     inkscape:cx="-40.104746"
     inkscape:cy="17"
     inkscape:window-x="1920"
     inkscape:window-y="30"
     inkscape:window-maximized="1"
     inkscape:current-layer="svg28" />
  <g
     id="g22"
     transform="translate(-7.02,-6)">
    <path
       d="M 10.02,57 H 54 a 3,3 0 0 0 3,-3 V 12 a 1,1 0 0 0 -0.293,-0.707 l -4,-4 A 1,1 0 0 0 52,7 H 48 A 1,1 0 0 0 47.1,7.553 L 46.382,9 H 45.618 L 44.9,7.553 A 1,1 0 0 0 44,7 H 43 A 1,1 0 0 0 42,6 H 22 A 1,1 0 0 0 21,7 H 10.02 a 3,3 0 0 0 -3,3 v 44 a 3,3 0 0 0 3,3 z M 18,55 A 1,1 0 0 1 17,54 V 31 a 1,1 0 0 1 1,-1 h 28 a 1,1 0 0 1 1,1 v 23 a 1,1 0 0 1 -1,1 z M 41,8 v 13 a 1,1 0 0 1 -1,1 H 24 A 1,1 0 0 1 23,21 V 8 Z M 21,9 v 12 a 2.966,2.966 0 0 0 0.184,1 H 18 A 1,1 0 0 1 17,21 V 9 Z M 9.02,10 a 1,1 0 0 1 1,-1 H 15 v 12 a 3,3 0 0 0 3,3 h 22 a 3,3 0 0 0 3,-3 V 9 h 0.382 l 0.723,1.447 A 1,1 0 0 0 45,11 h 2 a 1,1 0 0 0 0.9,-0.553 L 48.618,9 h 2.968 L 55,12.414 V 54 a 1,1 0 0 1 -1,1 H 48.816 A 2.966,2.966 0 0 0 49,54 V 31 A 3,3 0 0 0 46,28 H 18 a 3,3 0 0 0 -3,3 v 23 a 2.966,2.966 0 0 0 0.184,1 H 10.02 a 1,1 0 0 1 -1,-1 z"
       id="path2"
       inkscape:connector-curvature="0" />
    <rect
       x="11"
       y="51"
       width="2"
       height="2"
       id="rect4" />
    <rect
       x="11"
       y="11"
       width="2"
       height="2"
       id="rect6" />
    <rect
       x="51"
       y="51"
       width="2"
       height="2"
       id="rect8" />
    <path
       d="m 32,20 h 6 a 1,1 0 0 0 1,-1 v -8 a 1,1 0 0 0 -1,-1 h -6 a 1,1 0 0 0 -1,1 v 8 a 1,1 0 0 0 1,1 z m 1,-8 h 4 v 6 h -4 z"
       id="path10"
       inkscape:connector-curvature="0" />
    <rect
       x="21"
       y="36"
       width="22"
       height="2"
       id="rect12" />
    <rect
       x="21"
       y="42"
       width="22"
       height="2"
       id="rect14" />
    <rect
       x="21"
       y="48"
       width="22"
       height="2"
       id="rect16" />
    <rect
       x="45"
       y="13"
       width="2"
       height="2"
       id="rect18" />
    <rect
       x="45"
       y="17"
       width="2"
       height="4"
       id="rect20" />
  </g>
</svg>
